# xmcd
#
# Track frame offsets:
#	150
#	25426
#	42371
#	70949
#	99222
#	122523
#	145954
#	175798
#	200010
#	223767
#
# Disc length: 3316 seconds
#
# Revision: 0
# Processed by: cddbd v1.5.2PL0 Copyright (c) Steve Scherf et al.
# Submitted via: EZCDAudioConverter 2.1.7.1
#
DISCID=910cf20a
DTITLE=V/A - Doing It In Lagos 1/2
DYEAR=1900
DGENRE=
TTITLE0=Hotline  - Fellas Doing It In Lagos
TTITLE1=Peter Abdul - Don't You Know
TTITLE2=Steve Monite - Only You
TTITLE3=Oby Onyioha - Enjoy Your Life
TTITLE4=Kio Amachree - Ivory
TTITLE5=Livy Ekemezie - Holiday Action
TTITLE6=Willy Roy - Don't Give Up
TTITLE7=Danny Offia and The Friks - Funk With Me
TTITLE8=Rick Asikpo and Afro Fusion - Too Hot
TTITLE9=Terry Mackson - Distant Lover
EXTD=
EXTT0=
EXTT1=
EXTT2=
EXTT3=
EXTT4=
EXTT5=
EXTT6=
EXTT7=
EXTT8=
EXTT9=
PLAYORDER=
